<?xml version="1.0" encoding="UTF-8"?>
<svg id="Camada_1" data-name="Camada 1" xmlns="http://www.w3.org/2000/svg" viewBox="0 0 116.8 116.8">
  <defs>
    <style>
      .cls-1 {
        fill: #bd58e7;
      }

      .cls-2 {
        fill: #f5ecfa;
      }
    </style>
  </defs>
  <rect class="cls-1" width="116.8" height="116.8" rx="18.76" ry="18.76"/>
  <path class="cls-2" d="M81.43,42.37l-7.79,21.75c-.25.69-1.23.71-1.5.02l-8.61-21.8c-.12-.31-.42-.51-.74-.51h-22.6c-.44,0-.8-.36-.8-.8v-1.33c0-1.91.49-3.39,1.48-4.43.98-1.04,2.3-1.56,3.94-1.56,1.04,0,2.05.16,3.03.49.73.24,1.42.56,2.06.96.37.23.85.12,1.08-.24.68-1.03,1.36-2.05,2.06-3.06.71-1.03,1.41-2.07,2.1-3.12.23-.35.15-.83-.19-1.09-1.59-1.23-3.34-2.11-5.23-2.64-2.13-.6-4.24-.9-6.31-.9-2.62,0-5.14.56-7.55,1.68-2.41,1.12-4.37,2.83-5.9,5.13-1.53,2.3-2.3,5.28-2.3,8.94v39.63c0,.44.36.8.8.8h10.13c.44,0,.8-.36.8-.8v-27.6c0-.44.36-.8.8-.8h13.46c.31,0,.6.18.73.46l12.92,28.02c.09.19.1.41.02.61l-1.03,2.81c-.71,1.91-1.5,3.27-2.38,4.06-.82.75-1.82,1.14-2.98,1.18-3.35-.09-6.09-2.65-6.45-5.93-.05-.41-.38-.73-.8-.73h-7.81c-.46,0-.82.39-.8.85.44,8.46,7.47,15.21,16.04,15.21,2.68,0,5.34-.47,7.15-1.48,1.8-1.01,3.29-2.38,4.47-4.1,1.18-1.72,2.2-3.62,3.08-5.7.87-2.08,1.75-4.18,2.62-6.31l15.29-37.11c.22-.53-.17-1.1-.74-1.1h-10.79c-.34,0-.64.21-.75.53Z"/>
</svg>