<?xml version="1.0" encoding="UTF-8"?>
<svg id="Camada_1" data-name="Camada 1" xmlns="http://www.w3.org/2000/svg" viewBox="0 0 394.52 152.57">
  <defs>
    <style>
      .cls-1 {
        fill: #572d63;
      }

      .cls-2 {
        fill: #bd58e7;
      }
    </style>
  </defs>
  <g>
    <path class="cls-1" d="M10.59,106.96V12.62c0-.84.68-1.52,1.52-1.52h18.48c.84,0,1.52.68,1.52,1.52v30c0,1.23,1.39,1.95,2.39,1.23,1.62-1.14,3.53-2.1,5.75-2.87,3.44-1.2,6.85-1.79,10.23-1.79,6.67,0,12.33,1.62,16.96,4.86,4.63,3.24,8.17,7.52,10.61,12.85,2.44,5.33,3.66,11.18,3.66,17.55,0,7.57-1.59,14.27-4.78,20.09-3.19,5.83-7.84,10.38-13.97,13.67-6.13,3.29-13.52,4.93-22.19,4.93-5.98,0-11.63-.55-16.96-1.64-4.81-.99-8.87-2.02-12.18-3.09-.62-.2-1.04-.79-1.04-1.44ZM32.1,72.05v20.54c0,.68.44,1.27,1.1,1.46.91.26,1.88.5,2.94.71,1.49.3,3.49.45,5.98.45,5.58,0,9.96-1.84,13.15-5.53,3.19-3.68,4.78-8.52,4.78-14.49,0-2.89-.47-5.68-1.42-8.37-.95-2.69-2.44-4.9-4.48-6.65-2.04-1.74-4.71-2.61-7.99-2.61-4.78,0-8.32,1.32-10.61,3.96-2.29,2.64-3.44,6.15-3.44,10.53Z"/>
    <path class="cls-1" d="M271.95,106.96V12.62c0-.84-.68-1.52-1.52-1.52h-18.48c-.84,0-1.52.68-1.52,1.52v30c0,1.23-1.39,1.95-2.39,1.23-1.62-1.14-3.53-2.1-5.75-2.87-3.44-1.2-6.85-1.79-10.23-1.79-6.67,0-12.33,1.62-16.96,4.86-4.63,3.24-8.17,7.52-10.61,12.85-2.44,5.33-3.66,11.18-3.66,17.55,0,7.57,1.59,14.27,4.78,20.09,3.19,5.83,7.84,10.38,13.97,13.67,6.13,3.29,13.52,4.93,22.19,4.93,5.98,0,11.63-.55,16.96-1.64,4.81-.99,8.87-2.02,12.18-3.09.62-.2,1.04-.79,1.04-1.44ZM250.44,72.05v20.54c0,.68-.44,1.27-1.1,1.46-.91.26-1.88.5-2.94.71-1.49.3-3.49.45-5.98.45-5.58,0-9.96-1.84-13.15-5.53-3.19-3.68-4.78-8.52-4.78-14.49,0-2.89.47-5.68,1.42-8.37.95-2.69,2.44-4.9,4.48-6.65,2.04-1.74,4.71-2.61,7.99-2.61,4.78,0,8.32,1.32,10.61,3.96,2.29,2.64,3.44,6.15,3.44,10.53Z"/>
    <path class="cls-1" d="M88.86,75.64c0-6.87,1.59-13.15,4.78-18.82,3.19-5.68,7.59-10.18,13.22-13.52,5.63-3.34,12.18-5,19.65-5s14.02,1.67,19.65,5c5.63,3.34,10.01,7.84,13.15,13.52,3.14,5.68,4.71,11.95,4.71,18.82s-1.57,13.15-4.71,18.82c-3.14,5.68-7.52,10.21-13.15,13.6-5.63,3.38-12.18,5.08-19.65,5.08s-14.02-1.69-19.65-5.08c-5.63-3.38-10.04-7.92-13.22-13.6-3.19-5.68-4.78-11.95-4.78-18.82ZM126.51,94.46c3.68,0,6.75-.9,9.19-2.69,2.44-1.79,4.31-4.13,5.6-7.02,1.29-2.89,1.94-5.92,1.94-9.11s-.65-6.2-1.94-9.04c-1.3-2.84-3.16-5.15-5.6-6.95-2.44-1.79-5.5-2.69-9.19-2.69s-6.65.9-9.19,2.69c-2.54,1.79-4.46,4.11-5.75,6.95-1.3,2.84-1.94,5.85-1.94,9.04s.65,6.23,1.94,9.11c1.29,2.89,3.21,5.23,5.75,7.02,2.54,1.79,5.6,2.69,9.19,2.69Z"/>
    <path class="cls-1" d="M203.88,110.22c-7.52-6.96-10.79-17.34-10.79-28.71h-.05V12.62c0-.84-.68-1.52-1.52-1.52h-18.48c-.84,0-1.52.68-1.52,1.52v68.91h0c-.11,21.66,5.67,33.38,17.71,44.52,11.16,10.32,26.98,15.62,44.52,16.69.84.05,1.57-.61,1.6-1.45l.82-18.5c.04-.83-.6-1.53-1.43-1.58-12.37-.81-23.48-4.14-30.87-10.97Z"/>
  </g>
  <path class="cls-2" d="M362.68,41.64l-14.19,39.62c-.45,1.27-2.23,1.29-2.73.04l-15.69-39.71c-.22-.56-.76-.92-1.35-.92h-41.18c-.8,0-1.46-.65-1.46-1.46v-2.43c0-3.49.9-6.17,2.69-8.07,1.79-1.89,4.18-2.84,7.17-2.84,1.89,0,3.74.3,5.53.9,1.34.45,2.59,1.03,3.76,1.75.67.41,1.54.22,1.97-.43,1.23-1.87,2.49-3.73,3.75-5.57,1.29-1.88,2.57-3.77,3.83-5.69.42-.65.26-1.51-.35-1.98-2.9-2.23-6.08-3.83-9.53-4.81-3.88-1.09-7.72-1.64-11.5-1.64-4.78,0-9.36,1.02-13.75,3.06-4.38,2.04-7.97,5.15-10.76,9.34-2.79,4.18-4.18,9.61-4.18,16.28v72.2c0,.8.65,1.46,1.46,1.46h18.45c.8,0,1.46-.65,1.46-1.46v-50.27c0-.8.65-1.46,1.46-1.46h24.52c.57,0,1.08.33,1.32.85l23.54,51.05c.16.35.18.75.04,1.11l-1.88,5.11c-1.3,3.49-2.74,5.95-4.33,7.4-1.5,1.36-3.31,2.07-5.43,2.15-6.1-.16-11.1-4.84-11.75-10.8-.08-.75-.69-1.33-1.45-1.33h-14.23c-.84,0-1.5.71-1.46,1.55.81,15.42,13.6,27.71,29.22,27.71,4.88,0,9.73-.85,13.02-2.69,3.29-1.84,6-4.33,8.14-7.47,2.14-3.14,4.01-6.6,5.6-10.38,1.59-3.79,3.19-7.62,4.78-11.5l27.86-67.61c.39-.96-.31-2.01-1.35-2.01h-19.66c-.62,0-1.16.39-1.37.97Z"/>
</svg>